<svg xmlns="http://www.w3.org/2000/svg" viewBox="0 0 640 512"><!--!Font Awesome Free 6.7.2 by @fontawesome - https://fontawesome.com License - https://fontawesome.com/license/free Copyright 2024 Fonticons, Inc.--><path fill="#2563eb" d="M320 32c-8.1 0-16.1 1.4-23.7 4.1L15.8 137.4C6.3 140.9 0 149.9 0 160s6.3 19.1 15.8 22.6l57.9 20.9C57.3 229.3 48 259.8 48 291.9v28.1c0 28.4-10.8 57.7-22.3 80.8-4.7 9.6-10.7 19.2-17 28.7-2.8 4.2-4.3 9.2-4.2 14.2s3.1 9.9 7.1 12.6l57.2 38.1c4.8 3.2 10.6 4.8 16.2 3.8 5.6-1 10.4-3.8 13.9-8.4 20-27.1 36-58.7 39.4-96.2 .6-5.8 1.7-21.8 1.7-27.7v-28.1c0-29.2-7.9-56.9-21.9-81.2l19.1 6.9c23.6 8.5 49.3 8.5 72.9 0l280.3-101c7.6-2.7 15.6-4.1 23.7-4.1s16.1 1.4 23.7 4.1L624.2 137.4c9.5 3.4 15.8 12.5 15.8 22.6s-6.3 19.1-15.8 22.6l-280.3 101c-8.1 2.9-16.7 4.4-25.3 4.4h-1c-8.6 0-17.2-1.5-25.3-4.4L57.9 180.9 296.3 94.1c7.6-2.7 15.6-4.1 23.7-4.1zM224 352c0-42.8 57.3-76.8 128-76.8s128 34 128 76.8V448c0 42.8-57.3 76.8-128 76.8s-128-34-128-76.8V352z"/></svg>
